<?xml version="1.0" encoding="utf-8"?>
<!-- Generator: Adobe Illustrator 15.0.0, SVG Export Plug-In . SVG Version: 6.00 Build 0)  -->
<!DOCTYPE svg PUBLIC "-//W3C//DTD SVG 1.1//EN" "http://www.w3.org/Graphics/SVG/1.1/DTD/svg11.dtd">
<svg version="1.1" id="Layer_1" xmlns="http://www.w3.org/2000/svg" xmlns:xlink="http://www.w3.org/1999/xlink" x="0px" y="0px"
	 width="297px" height="117px" viewBox="0 4 297 117" enable-background="new 0 4 297 117" xml:space="preserve">
<g id="Layer_2">
</g>
<g id="Layer_1_1_">
	<g>
		<g>
			<path fill="#66B360" d="M132.124,108.644l-26.355-44.777H61.001L50.925,81.007h42.417l12.279,20.891H38.647l-10.103,17.181
				h97.433c2.536,0,4.877-1.326,6.144-3.477C133.39,113.446,133.39,110.795,132.124,108.644z"/>
			<path fill="#66B360" d="M73.394,8.854c-1.267-2.152-3.61-3.479-6.145-3.479c-2.536,0-4.879,1.327-6.146,3.479L2.375,108.643
				c-1.268,2.152-1.267,4.802,0,6.955c1.268,2.152,3.608,3.476,6.144,3.476h10.255l48.475-82.456l11.17,19.001h22.497L73.394,8.854z
				"/>
		</g>
		<g>
			<polygon fill="#FFFFFF" points="55.979,63.864 45.903,81.005 50.925,81.005 61.001,63.864 			"/>
			<polygon fill="#FFFFFF" points="33.624,101.895 23.524,119.075 28.546,119.075 38.647,101.895 			"/>
			<polygon fill="#FFFFFF" points="78.419,55.621 80.801,59.671 103.302,59.671 100.917,55.621 			"/>
		</g>
	</g>
	<g>
		<path fill="#FFFFFF" d="M210.681,52.42c0,0.721-0.244,1.327-0.729,1.812c-0.488,0.487-1.089,0.729-1.812,0.729
			c-1.002,0-1.815-0.47-2.446-1.412l-4.631-6.723h-22.004l-4.633,6.723c-0.5,0.738-1.042,1.105-1.622,1.105
			c-0.577,0-1.135-0.188-1.67-0.564c-0.595-0.407-0.893-0.884-0.893-1.434c0-0.172,0.047-0.328,0.142-0.47L186.89,26.96
			c0.671-1.035,1.833-1.553,3.477-1.553c1.222,0,2.036,0.346,2.448,1.036c0.028,0.046,0.063,0.112,0.106,0.198
			c0.041,0.086,0.097,0.192,0.175,0.319l17.495,24.756C210.648,51.825,210.681,52.06,210.681,52.42z M198.009,42.523l-7.922-11.686
			l-7.971,11.686H198.009z"/>
		<path fill="#FFFFFF" d="M218.133,52.516c0,1.237-0.612,1.854-1.834,1.854c-1.209,0-1.91-0.055-2.116-0.163
			c-0.672-0.251-1.01-0.815-1.01-1.692V27.571c0-1.223,0.614-1.834,1.835-1.834c1.145,0,1.856,0.048,2.14,0.142
			c0.66,0.22,0.989,0.784,0.989,1.692L218.133,52.516L218.133,52.516z"/>
		<path fill="#FFFFFF" d="M235.86,33.849c0,1.534-0.612,2.304-1.836,2.304h-7.567v16.363c0,1.237-0.612,1.854-1.835,1.854
			c-1.222,0-1.938-0.055-2.14-0.163c-0.66-0.235-0.987-0.799-0.987-1.692V32.366c0-4.435,3.704-6.652,11.119-6.652
			c1.269,0,2.062,0.071,2.373,0.212c0.58,0.28,0.873,0.98,0.873,2.092c0,1.221-0.612,1.833-1.835,1.833
			c-2.226,0-3.677,0.048-4.349,0.142c-2.102,0.314-3.15,0.987-3.15,2.022h7.499C235.25,32.015,235.86,32.625,235.86,33.849z"/>
		<path fill="#FFFFFF" d="M264.479,47.6c0,4.515-3.385,6.771-10.155,6.771H242.19c-2.601,0-4.851-0.477-6.747-1.433
			c-2.555-1.221-3.832-2.922-3.832-5.101v-2.87c0-2.35,1.215-4.113,3.644-5.289c1.805-0.91,4.061-1.365,6.771-1.365h17.539
			c-0.27-1.583-2.508-2.374-6.724-2.374c-0.173,0-0.38,0.004-0.623,0.013c-0.24,0.008-0.521,0.02-0.831,0.035
			c-0.02,0.016-0.097,0.022-0.236,0.022h-0.211h-0.376h-0.586c-1.222,0-1.834-0.776-1.834-2.327c0-1.236,0.612-1.856,1.834-1.856
			c3.966,0,7,0.274,9.1,0.823c3.604,1.02,5.407,3.055,5.407,6.113v8.838h-0.007V47.6z M259.611,46.426
			c0-0.22-0.004-0.493-0.015-0.823c-0.008-0.33-0.02-0.713-0.031-1.153c-0.018-0.439-0.027-0.823-0.036-1.151
			c-0.009-0.33-0.013-0.604-0.013-0.825h-17.609c-1.036,0-2.1,0.19-3.198,0.565c-1.426,0.488-2.139,1.121-2.139,1.905v2.844
			c0,0.831,0.736,1.466,2.21,1.904c0.938,0.344,2.03,0.518,3.267,0.518h12.319c1.851,0,3.119-0.181,3.81-0.54
			C259.134,49.185,259.611,48.102,259.611,46.426z"/>
		<path fill="#FFFFFF" d="M156.8,84.432c0,3.433-1.613,5.771-4.845,7.009c-2.067,0.797-5.138,1.199-9.214,1.199
			c-1.238,0-1.855-0.814-1.855-2.447c0-1.239,0.618-1.854,1.855-1.854c2.633,0,4.459-0.117,5.478-0.354
			c2.239-0.55,3.359-1.708,3.359-3.48V65.839c0-1.223,0.613-1.835,1.828-1.835c1.182,0,1.934,0.046,2.245,0.14
			c0.764,0.204,1.146,0.77,1.146,1.695L156.8,84.432L156.8,84.432z"/>
		<path fill="#FFFFFF" d="M192.488,85.866c0,4.514-3.387,6.771-10.158,6.771h-12.129c-2.603,0-4.852-0.479-6.748-1.435
			c-2.556-1.223-3.833-2.921-3.833-5.099v-2.872c0-2.349,1.216-4.113,3.644-5.288c1.807-0.911,4.062-1.365,6.771-1.365h17.54
			c-0.27-1.582-2.507-2.375-6.725-2.375c-0.173,0-0.38,0.008-0.623,0.016c-0.238,0.006-0.52,0.02-0.83,0.033
			c-0.019,0.017-0.094,0.023-0.235,0.023h-0.211h-0.375h-0.587c-1.223,0-1.834-0.777-1.834-2.327c0-1.24,0.611-1.856,1.834-1.856
			c3.964,0,6.998,0.275,9.099,0.823c3.604,1.019,5.408,3.057,5.408,6.117v8.837h-0.005v-0.004H192.488z M187.621,84.691
			c0-0.22-0.004-0.493-0.012-0.823c-0.01-0.329-0.021-0.713-0.036-1.152c-0.018-0.438-0.026-0.823-0.034-1.151
			c-0.008-0.33-0.012-0.603-0.012-0.822h-17.612c-1.034,0-2.101,0.187-3.197,0.562c-1.426,0.485-2.14,1.121-2.14,1.903v2.844
			c0,0.83,0.738,1.469,2.211,1.902c0.94,0.347,2.027,0.519,3.267,0.519h12.319c1.851,0,3.119-0.181,3.81-0.537
			C187.145,87.448,187.621,86.367,187.621,84.691z"/>
		<path fill="#FFFFFF" d="M225.639,90.779c0,1.238-0.617,1.858-1.857,1.858c-1.223,0-1.935-0.058-2.139-0.164
			c-0.674-0.236-1.011-0.802-1.011-1.694V76.438c0-1.017-0.847-1.684-2.537-1.998c-0.297-0.064-0.755-0.106-1.378-0.127
			c-0.618-0.024-1.396-0.036-2.336-0.036h-8.558c-0.863,0-1.587,0.016-2.176,0.046c-0.586,0.031-1.053,0.08-1.396,0.144
			c-1.6,0.313-2.4,0.977-2.4,1.996v14.317c0,1.238-0.614,1.858-1.833,1.858c-1.221,0-1.938-0.058-2.142-0.164
			c-0.66-0.235-0.988-0.802-0.988-1.694V76.512c0-4.282,3.794-6.419,11.38-6.419h8.113c7.508,0,11.262,2.123,11.262,6.372
			L225.639,90.779L225.639,90.779z"/>
		<path fill="#FFFFFF" d="M260.151,91.885c0,2.587-1.61,4.483-4.839,5.689c-2.151,0.863-4.868,1.293-8.161,1.293h-2.068
			c-1.236,0-1.855-0.775-1.855-2.327c0-1.221,0.619-1.834,1.855-1.834h3.6c0.626,0,1.804-0.227,3.524-0.683
			c1.789-0.517,2.735-1.04,2.845-1.574h-13.614c-3.213,0-5.854-0.398-7.92-1.198c-3.01-1.143-4.514-3.064-4.514-5.76v-8.37
			c0-4.733,4.668-7.101,14.009-7.101c0.251,0,0.557,0.004,0.916,0.014c0.36,0.008,0.79,0.02,1.294,0.034
			c0.02,0.016,0.133,0.022,0.353,0.022h0.355h0.587h0.918c2.963,0,5.646,0.439,8.04,1.316c3.118,1.22,4.676,3.14,4.676,5.761V91.885
			L260.151,91.885z M255.144,88.312V77.378c0-1.112-0.917-1.949-2.75-2.515c-1.489-0.407-2.877-0.612-4.158-0.612h-7.83
			c-1.849,0-3.173,0.095-3.974,0.279c-1.646,0.406-2.468,1.239-2.468,2.494v8.393c0,1.928,2.46,2.89,7.382,2.89L255.144,88.312
			L255.144,88.312z"/>
		<path fill="#FFFFFF" d="M294.147,85.631c0,2.573-1.269,4.453-3.809,5.645c-1.804,0.91-4.2,1.364-7.193,1.364h-8.252
			c-2.728,0-5.196-0.463-7.406-1.386c-2.725-1.22-4.088-3.094-4.088-5.618v-8.297c0-2.523,1.353-4.436,4.067-5.738
			c1.99-1.001,4.458-1.504,7.405-1.504h8.275c7.336,0,11.003,2.398,11.003,7.194L294.147,85.631L294.147,85.631z M289.116,85.631
			v-8.673c0-1.786-2.036-2.68-6.112-2.68h-8.067c-1.504,0-2.852,0.189-4.041,0.563c-1.691,0.55-2.539,1.38-2.539,2.493v8.296
			c0,1.068,0.863,1.852,2.587,2.354c1.142,0.328,2.484,0.491,4.021,0.491h8.062c1.302,0,2.534-0.188,3.69-0.563
			C288.318,87.396,289.116,86.634,289.116,85.631z"/>
	</g>
</g>
<g id="Layer_3">
</g>
</svg>
