<?xml version="1.0" encoding="utf-8"?>
<!-- Generator: Adobe Illustrator 15.0.0, SVG Export Plug-In . SVG Version: 6.00 Build 0)  -->
<!DOCTYPE svg PUBLIC "-//W3C//DTD SVG 1.1//EN" "http://www.w3.org/Graphics/SVG/1.1/DTD/svg11.dtd">
<svg version="1.1" id="Layer_1" xmlns="http://www.w3.org/2000/svg" xmlns:xlink="http://www.w3.org/1999/xlink" x="0px" y="0px"
	 width="369px" height="64.25px" viewBox="0 9.75 369 64.25" enable-background="new 0 9.75 369 64.25" xml:space="preserve">
<g id="Layer_2">
</g>
<g id="Layer_1_1_">
	<g>
		<g>
			<path fill="#66B360" d="M72.88,66.399L58.739,42.373H34.717l-5.408,9.196H52.07l6.588,11.209H22.722l-5.419,9.22h52.28
				c1.36,0,2.617-0.712,3.297-1.867C73.56,68.978,73.56,67.553,72.88,66.399z"/>
			<path fill="#66B360" d="M41.366,12.855c-0.679-1.155-1.936-1.867-3.297-1.867c-1.36,0-2.618,0.712-3.298,1.867L3.258,66.399
				c-0.68,1.156-0.68,2.578,0,3.731c0.68,1.154,1.937,1.867,3.296,1.867h5.504L38.069,27.75l5.993,10.196h12.073L41.366,12.855z"/>
		</g>
		<g>
			<polygon fill="#FFFFFF" points="32.022,42.373 26.616,51.569 29.309,51.569 34.717,42.373 			"/>
			<polygon fill="#FFFFFF" points="20.027,62.778 14.608,71.998 17.302,71.998 22.722,62.778 			"/>
			<polygon fill="#FFFFFF" points="44.062,37.946 45.341,40.123 57.414,40.123 56.135,37.946 			"/>
		</g>
	</g>
	<g>
		<path fill="#FFFFFF" d="M131.97,56.92c0,0.769-0.259,1.412-0.775,1.928c-0.518,0.517-1.159,0.773-1.927,0.773
			c-1.066,0-1.933-0.5-2.601-1.5l-4.926-7.15H98.338l-4.927,7.15c-0.532,0.782-1.107,1.176-1.724,1.176
			c-0.617,0-1.208-0.201-1.775-0.601c-0.633-0.436-0.95-0.94-0.95-1.524c0-0.185,0.048-0.351,0.15-0.5l17.553-26.83
			c0.717-1.101,1.95-1.65,3.7-1.65c1.3,0,2.167,0.367,2.601,1.102c0.035,0.049,0.071,0.121,0.113,0.213
			c0.042,0.09,0.105,0.205,0.187,0.338l18.605,26.33C131.935,56.287,131.97,56.537,131.97,56.92z M118.492,46.394l-8.427-12.429
			l-8.477,12.429H118.492z"/>
		<path fill="#FFFFFF" d="M139.896,57.022c0,1.313-0.649,1.974-1.951,1.974c-1.283,0-2.032-0.06-2.25-0.175
			c-0.716-0.269-1.075-0.867-1.075-1.799V30.49c0-1.3,0.65-1.95,1.951-1.95c1.217,0,1.976,0.05,2.276,0.15
			c0.7,0.234,1.05,0.833,1.05,1.8L139.896,57.022L139.896,57.022z"/>
		<path fill="#FFFFFF" d="M158.749,37.168c0,1.633-0.649,2.448-1.951,2.448h-8.051v17.404c0,1.314-0.651,1.975-1.95,1.975
			c-1.301,0-2.06-0.059-2.276-0.176c-0.701-0.25-1.05-0.85-1.05-1.799v-21.43c0-4.717,3.942-7.075,11.828-7.075
			c1.349,0,2.191,0.075,2.524,0.225c0.616,0.3,0.926,1.042,0.926,2.226c0,1.301-0.649,1.949-1.951,1.949
			c-2.366,0-3.909,0.051-4.625,0.151c-2.234,0.334-3.352,1.05-3.352,2.151h7.976C158.1,35.217,158.749,35.867,158.749,37.168z"/>
		<path fill="#FFFFFF" d="M189.187,51.793c0,4.803-3.602,7.202-10.801,7.202h-12.902c-2.767,0-5.159-0.508-7.176-1.524
			c-2.718-1.299-4.076-3.106-4.076-5.426v-3.052c0-2.499,1.292-4.375,3.875-5.624c1.917-0.969,4.317-1.451,7.201-1.451h18.653
			c-0.284-1.686-2.667-2.524-7.151-2.524c-0.184,0-0.405,0.004-0.662,0.013c-0.258,0.011-0.554,0.021-0.887,0.037
			c-0.017,0.017-0.101,0.023-0.25,0.023h-0.224h-0.401h-0.625c-1.3,0-1.95-0.824-1.95-2.476c0-1.315,0.65-1.974,1.95-1.974
			c4.218,0,7.444,0.292,9.678,0.875c3.833,1.085,5.75,3.25,5.75,6.5v9.399L189.187,51.793L189.187,51.793z M184.012,50.545
			c0-0.231-0.005-0.524-0.014-0.875c-0.008-0.351-0.02-0.76-0.037-1.228c-0.016-0.467-0.03-0.875-0.038-1.225
			c-0.008-0.352-0.012-0.643-0.012-0.877h-18.728c-1.101,0-2.234,0.201-3.401,0.602c-1.516,0.521-2.275,1.191-2.275,2.025v3.023
			c0,0.885,0.783,1.561,2.35,2.025c0.999,0.364,2.158,0.551,3.475,0.551h13.103c1.968,0,3.317-0.191,4.05-0.576
			C183.502,53.479,184.012,52.328,184.012,50.545z"/>
		<path fill="#FFFFFF" d="M221.317,50.194c0,3.65-1.719,6.136-5.154,7.451c-2.198,0.851-5.464,1.273-9.798,1.273
			c-1.317,0-1.976-0.865-1.976-2.602c0-1.316,0.656-1.976,1.976-1.976c2.8,0,4.741-0.123,5.825-0.375
			c2.384-0.584,3.572-1.815,3.572-3.701v-19.85c0-1.3,0.648-1.951,1.944-1.951c1.257,0,2.058,0.049,2.39,0.149
			c0.812,0.216,1.219,0.818,1.219,1.802v19.776L221.317,50.194L221.317,50.194z"/>
		<path fill="#FFFFFF" d="M259.274,51.719c0,4.802-3.604,7.201-10.805,7.201h-12.898c-2.77,0-5.16-0.509-7.176-1.524
			c-2.719-1.3-4.078-3.107-4.078-5.425V48.92c0-2.5,1.293-4.377,3.875-5.627c1.918-0.97,4.318-1.449,7.201-1.449h18.652
			c-0.283-1.687-2.668-2.527-7.15-2.527c-0.184,0-0.402,0.006-0.662,0.017c-0.258,0.006-0.555,0.02-0.887,0.034
			c-0.018,0.019-0.101,0.025-0.25,0.025h-0.225h-0.398h-0.627c-1.3,0-1.949-0.827-1.949-2.477c0-1.316,0.649-1.975,1.949-1.975
			c4.219,0,7.443,0.293,9.678,0.875c3.836,1.083,5.752,3.25,5.752,6.502v9.399L259.274,51.719L259.274,51.719z M254.099,50.469
			c0-0.231-0.004-0.524-0.013-0.877c-0.009-0.351-0.021-0.758-0.038-1.226c-0.016-0.467-0.027-0.877-0.037-1.226
			c-0.009-0.351-0.014-0.642-0.014-0.875h-18.729c-1.103,0-2.232,0.2-3.4,0.599c-1.518,0.521-2.275,1.193-2.275,2.025v3.025
			c0,0.885,0.784,1.561,2.353,2.023c1.001,0.368,2.155,0.551,3.475,0.551h13.104c1.968,0,3.314-0.189,4.052-0.572
			C253.59,53.403,254.099,52.254,254.099,50.469z"/>
		<path fill="#FFFFFF" d="M294.531,56.944c0,1.316-0.657,1.978-1.976,1.978c-1.302,0-2.061-0.062-2.275-0.174
			c-0.717-0.252-1.074-0.854-1.074-1.804V41.692c0-1.083-0.9-1.792-2.701-2.126c-0.316-0.065-0.804-0.112-1.463-0.136
			c-0.658-0.025-1.486-0.038-2.488-0.038h-9.102c-0.917,0-1.688,0.018-2.312,0.049c-0.623,0.033-1.121,0.084-1.484,0.15
			c-1.7,0.334-2.555,1.041-2.555,2.125v15.228c0,1.317-0.647,1.979-1.949,1.979c-1.299,0-2.057-0.062-2.273-0.174
			c-0.699-0.252-1.05-0.854-1.05-1.805V41.768c0-4.553,4.033-6.827,12.104-6.827h8.625c7.983,0,11.979,2.259,11.979,6.776
			L294.531,56.944L294.531,56.944z"/>
		<path fill="#FFFFFF" d="M331.237,58.121c0,2.752-1.717,4.769-5.151,6.051c-2.282,0.92-5.176,1.377-8.675,1.377h-2.201
			c-1.316,0-1.975-0.825-1.975-2.478c0-1.301,0.656-1.95,1.975-1.95h3.826c0.667,0,1.917-0.24,3.75-0.726
			c1.902-0.551,2.909-1.106,3.025-1.676h-14.479c-3.418,0-6.229-0.424-8.427-1.273c-3.201-1.219-4.803-3.26-4.803-6.127V42.42
			c0-5.035,4.969-7.553,14.902-7.553c0.266,0,0.594,0.004,0.977,0.014c0.384,0.009,0.843,0.021,1.375,0.039
			c0.018,0.015,0.143,0.021,0.375,0.021h0.377h0.623h0.976c3.149,0,6.003,0.468,8.554,1.4c3.317,1.3,4.977,3.343,4.977,6.127V58.121
			L331.237,58.121z M325.912,54.321V42.692c0-1.185-0.976-2.072-2.926-2.675c-1.585-0.434-3.06-0.651-4.425-0.651h-8.328
			c-1.965,0-3.375,0.102-4.225,0.299c-1.75,0.434-2.628,1.317-2.628,2.652v8.927c0,2.052,2.618,3.075,7.853,3.075L325.912,54.321
			L325.912,54.321z"/>
		<path fill="#FFFFFF" d="M367.394,51.469c0,2.734-1.352,4.734-4.054,6.002c-1.913,0.968-4.467,1.449-7.649,1.449h-8.775
			c-2.898,0-5.525-0.492-7.876-1.476c-2.899-1.299-4.353-3.293-4.353-5.977v-8.826c0-2.684,1.441-4.717,4.328-6.102
			c2.114-1.066,4.739-1.601,7.875-1.601h8.803c7.802,0,11.701,2.552,11.701,7.651V51.469L367.394,51.469z M362.043,51.469V42.24
			c0-1.898-2.166-2.85-6.5-2.85h-8.577c-1.602,0-3.035,0.2-4.302,0.6c-1.798,0.585-2.699,1.467-2.699,2.651v8.826
			c0,1.135,0.918,1.967,2.75,2.5c1.216,0.352,2.644,0.523,4.277,0.523h8.575c1.384,0,2.693-0.199,3.925-0.598
			C361.194,53.346,362.043,52.536,362.043,51.469z"/>
	</g>
</g>
<g id="Layer_3">
</g>
</svg>
